# xmcd
#
# Track frame offsets:
#	150
#	2786
#	14079
#	28524
#	42407
#	65313
#	78960
#	97762
#	113235
#	123900
#	138068
#	152752
#	166701
#
# Disc length: 2446 seconds
#
# Revision: 0
# Processed by: cddbd v1.5.2PL0 Copyright (c) Steve Scherf et al.
# Submitted via: audiograbber 1.83.01
#
DISCID=92098c0d
DTITLE=PEPE Y TONO AGUILAR - EXITOS
DYEAR=1900
DGENRE=KARAOKE
TTITLE0=INTRO
TTITLE1=TRISTES RECUERDOS
TTITLE2=DIRECTO AL CORAZON
TTITLE3=ARBOLES DEL LA BARRANCA
TTITLE4=ALGO DE MI
TTITLE5=ALTA Y DELGADITA
TTITLE6=POR MUJERES COMO TU
TTITLE7=EL BRAVERO
TTITLE8=CHAPARRITA CONSENTIDA
TTITLE9=Y ANDALE
TTITLE10=RECUERDAME BONITO
TTITLE11=ADOLORIDO
TTITLE12=ME ESTOY ACOSTUMBRANDO A TI
EXTD=
EXTT0=
EXTT1=
EXTT2=
EXTT3=
EXTT4=
EXTT5=
EXTT6=
EXTT7=
EXTT8=
EXTT9=
EXTT10=
EXTT11=
EXTT12=
PLAYORDER=
